<svg width="32" height="32" viewBox="0 0 32 32" fill="none" xmlns="http://www.w3.org/2000/svg">
<circle cx="16" cy="16" r="16" fill="#E5F1FF"/>
<path d="M12.9048 21V19.6676L16.4396 16.2024C16.7777 15.861 17.0594 15.5578 17.2848 15.2926C17.5102 15.0275 17.6792 14.7706 17.7919 14.522C17.9046 14.2734 17.9609 14.0083 17.9609 13.7266C17.9609 13.4051 17.888 13.13 17.7422 12.9013C17.5964 12.6693 17.3958 12.4903 17.1406 12.3643C16.8854 12.2384 16.5954 12.1754 16.2706 12.1754C15.9358 12.1754 15.6425 12.245 15.3906 12.3842C15.1387 12.5201 14.9432 12.714 14.804 12.9659C14.6681 13.2178 14.6001 13.5178 14.6001 13.8658H12.8452C12.8452 13.2195 12.9927 12.6577 13.2876 12.1804C13.5826 11.7031 13.9886 11.3336 14.5057 11.0717C15.026 10.8099 15.6226 10.679 16.2955 10.679C16.9782 10.679 17.5781 10.8066 18.0952 11.0618C18.6122 11.317 19.0133 11.6667 19.2983 12.1108C19.5866 12.5549 19.7308 13.062 19.7308 13.6321C19.7308 14.0133 19.6579 14.3878 19.5121 14.7557C19.3662 15.1236 19.1094 15.5312 18.7415 15.9787C18.3769 16.4261 17.8648 16.968 17.2053 17.6044L15.4503 19.3892V19.4588H19.8849V21H12.9048Z" fill="#1A6AF4"/>
</svg>
