<svg width="32" height="32" viewBox="0 0 32 32" fill="none" xmlns="http://www.w3.org/2000/svg">
<circle cx="16" cy="16" r="16" fill="#E5F1FF"/>
<path fill-rule="evenodd" clip-rule="evenodd" d="M19.5314 11.2802L11.5007 19.2988C11.0037 19.7959 11.0037 20.6018 11.5007 21.099V21.099C11.9979 21.596 12.8038 21.596 13.3009 21.099L21.3195 13.0665C21.8127 12.5729 21.8127 11.773 21.3195 11.2793L21.3195 11.2793C20.8255 10.7858 20.025 10.7862 19.5314 11.2802V11.2802Z" fill="#377DFF"/>
<path opacity="0.3" fill-rule="evenodd" clip-rule="evenodd" d="M14.7046 12.2505C14.7046 13.1767 14.1465 14.0116 13.2907 14.3658C12.4349 14.72 11.45 14.5235 10.7955 13.8682C10.141 13.2128 9.94588 12.2277 10.3012 11.3723C10.6565 10.517 11.4922 9.95996 12.4184 9.96118C13.0251 9.96153 13.6069 10.2029 14.0357 10.6323C14.4645 11.0616 14.7051 11.6437 14.7046 12.2505ZM22.6324 20.1788C22.6328 21.1042 22.0753 21.9393 21.2198 22.294C20.3643 22.6486 19.3794 22.4529 18.7245 21.7981C18.0696 21.1434 17.8736 20.1585 18.2281 19.3029C18.5826 18.4474 19.4176 17.8896 20.3437 17.8899C20.9508 17.8896 21.5331 18.1307 21.9624 18.56C22.3917 18.9893 22.6327 19.5716 22.6324 20.1788Z" fill="#377DFF"/>
</svg>
