<svg width="24" height="24" viewBox="0 0 24 24" fill="none" xmlns="http://www.w3.org/2000/svg">
<g opacity="0.5">
<path d="M19 18.0002H5C4.44772 18.0002 4 18.448 4 19.0002C4 19.5525 4.44772 20.0002 5 20.0002H19C19.5523 20.0002 20 19.5525 20 19.0002C20 18.448 19.5523 18.0002 19 18.0002Z" fill="#1164F4"/>
<path d="M4 17.0002V19.0002C4 19.5525 4.44772 20.0002 5 20.0002C5.55228 20.0002 6 19.5525 6 19.0002V17.0002C6 16.448 5.55228 16.0002 5 16.0002C4.44772 16.0002 4 16.448 4 17.0002Z" fill="#1164F4"/>
<path d="M18 17.0002V19.0002C18 19.5525 18.4477 20.0002 19 20.0002C19.5523 20.0002 20 19.5525 20 19.0002V17.0002C20 16.448 19.5523 16.0002 19 16.0002C18.4477 16.0002 18 16.448 18 17.0002Z" fill="#1164F4"/>
<path d="M12.0004 15.0002C11.7931 15.0018 11.5904 14.9389 11.4204 14.8202L7.42044 12.0002C7.20485 11.8473 7.05858 11.6152 7.01361 11.3548C6.96864 11.0943 7.02862 10.8266 7.18044 10.6102C7.25623 10.5021 7.35268 10.41 7.46424 10.3394C7.57581 10.2687 7.70026 10.2208 7.83042 10.1985C7.96059 10.1762 8.09388 10.1799 8.22261 10.2093C8.35134 10.2388 8.47296 10.2935 8.58044 10.3702L12.0004 12.7602L15.4004 10.2002C15.6126 10.0411 15.8793 9.97279 16.1419 10.0103C16.4044 10.0478 16.6413 10.1881 16.8004 10.4002C16.9596 10.6124 17.0279 10.8791 16.9904 11.1417C16.9529 11.4042 16.8126 11.6411 16.6004 11.8002L12.6004 14.8002C12.4273 14.9301 12.2168 15.0002 12.0004 15.0002Z" fill="#1164F4"/>
<path d="M12 13.0002C11.7348 13.0002 11.4804 12.8949 11.2929 12.7074C11.1054 12.5198 11 12.2655 11 12.0002V4.00024C11 3.73503 11.1054 3.48067 11.2929 3.29314C11.4804 3.1056 11.7348 3.00024 12 3.00024C12.2652 3.00024 12.5196 3.1056 12.7071 3.29314C12.8946 3.48067 13 3.73503 13 4.00024V12.0002C13 12.2655 12.8946 12.5198 12.7071 12.7074C12.5196 12.8949 12.2652 13.0002 12 13.0002Z" fill="#1164F4"/>
</g>
</svg>
