<svg width="50" height="50" viewBox="0 0 50 50" fill="none" xmlns="http://www.w3.org/2000/svg">
<rect y="0.000244141" width="50" height="50" rx="10" fill="#F5F6FA"/>
<path d="M25.0001 20.0684C23.9845 20.0684 22.9918 20.3695 22.1473 20.9337C21.3029 21.498 20.6448 22.2999 20.2561 23.2382C19.8675 24.1765 19.7658 25.2089 19.9639 26.205C20.162 27.2011 20.6511 28.116 21.3692 28.8342C22.0873 29.5523 23.0023 30.0413 23.9984 30.2395C24.9944 30.4376 26.0269 30.3359 26.9652 29.9473C27.9034 29.5586 28.7054 28.9005 29.2696 28.056C29.8339 27.2116 30.135 26.2188 30.135 25.2032C30.135 24.5289 30.0022 23.8612 29.7442 23.2382C29.4861 22.6152 29.1079 22.0491 28.6311 21.5723C28.1543 21.0955 27.5882 20.7173 26.9652 20.4592C26.3422 20.2012 25.6745 20.0683 25.0001 20.0684ZM25.0001 28.5368C24.3408 28.5368 23.6963 28.3413 23.1481 27.975C22.5999 27.6087 22.1726 27.0881 21.9203 26.4789C21.668 25.8698 21.602 25.1995 21.7306 24.5528C21.8592 23.9062 22.1767 23.3122 22.6429 22.846C23.1092 22.3798 23.7031 22.0623 24.3498 21.9337C24.9965 21.805 25.6667 21.8711 26.2759 22.1234C26.885 22.3757 27.4056 22.803 27.7719 23.3512C28.1382 23.8994 28.3337 24.5439 28.3337 25.2032C28.3338 25.641 28.2476 26.0745 28.0801 26.479C27.9126 26.8835 27.667 27.251 27.3575 27.5606C27.0479 27.8701 26.6804 28.1157 26.2759 28.2832C25.8714 28.4507 25.4379 28.5369 25.0001 28.5368Z" fill="#AAB0B7"/>
<path d="M34.9395 21.0803C34.9231 20.2508 34.766 19.43 34.475 18.6531C34.2235 17.9859 33.8299 17.3815 33.3215 16.8816C32.8224 16.3727 32.2181 15.9791 31.5509 15.7281C30.774 15.4369 29.9532 15.2799 29.1236 15.2637C28.0574 15.2151 27.7165 15.2031 25.0008 15.2031C22.2851 15.2031 21.944 15.2144 20.8772 15.2637C20.0476 15.2801 19.2269 15.4371 18.4499 15.7281C17.7826 15.9793 17.1781 16.3729 16.6785 16.8816C16.1693 17.3808 15.7757 17.9855 15.5251 18.6531C15.2341 19.43 15.077 20.2508 15.0606 21.0803C15.0113 22.1465 15 22.4874 15 25.2031C15 27.9188 15.0113 28.2597 15.0606 29.3259C15.077 30.1554 15.234 30.9762 15.5251 31.7532C15.7757 32.4207 16.1694 33.0254 16.6785 33.5247C17.1784 34.033 17.7828 34.4266 18.4499 34.6781C19.2269 34.969 20.0477 35.126 20.8772 35.1425C21.944 35.191 22.2843 35.2031 25 35.2031C27.7157 35.2031 28.0566 35.1918 29.1228 35.1425C29.9523 35.1261 30.7731 34.9691 31.5501 34.6781C32.2145 34.4212 32.8179 34.0283 33.3215 33.5246C33.8252 33.021 34.2181 32.4176 34.475 31.7532C34.7663 30.9763 34.9234 30.1555 34.9395 29.3259C34.988 28.2589 34.9992 27.9188 34.9992 25.2031C34.9992 22.4874 34.988 22.1465 34.9395 21.0803ZM33.1405 29.2444C33.1328 29.8785 33.0164 30.5066 32.7965 31.1015C32.63 31.5327 32.3751 31.9243 32.0482 32.2511C31.7213 32.5779 31.3295 32.8326 30.8982 32.9989C30.3035 33.2193 29.6753 33.3357 29.0411 33.3429C27.987 33.3913 27.6705 33.401 24.9999 33.401C22.3294 33.401 22.0137 33.3913 20.9599 33.3429C20.3258 33.3356 19.6976 33.2192 19.1029 32.9989C18.6685 32.8383 18.2755 32.5828 17.9526 32.2509C17.6202 31.9287 17.3646 31.5359 17.2046 31.1015C16.9841 30.5068 16.8678 29.8786 16.8606 29.2444C16.8121 28.1903 16.8025 27.8737 16.8025 25.2032C16.8025 22.5327 16.813 22.217 16.8606 21.162C16.8686 20.5279 16.985 19.8999 17.2046 19.305C17.3651 18.8706 17.6207 18.4776 17.9526 18.1548C18.275 17.8222 18.6681 17.5665 19.1029 17.4068C19.6975 17.1863 20.3258 17.0699 20.9599 17.0628C22.014 17.0143 22.3306 17.0046 24.9999 17.0046C27.6693 17.0046 27.9862 17.0151 29.0411 17.0628C29.6752 17.0707 30.3033 17.1871 30.8982 17.4068C31.3297 17.573 31.7215 17.8278 32.0484 18.1548C32.3754 18.4817 32.6302 18.8736 32.7965 19.305C33.0169 19.8997 33.1333 20.5278 33.1405 21.162C33.189 22.217 33.1986 22.5327 33.1986 25.2032C33.1986 27.8737 33.189 28.1894 33.1405 29.2444H33.1405Z" fill="#AAB0B7"/>
<path d="M30.3387 18.666H30.3382C30.0201 18.6661 29.7149 18.7925 29.49 19.0175C29.265 19.2426 29.1386 19.5477 29.1387 19.8659C29.1387 20.1841 29.2651 20.4892 29.4901 20.7142C29.7151 20.9392 30.0203 21.0656 30.3385 21.0656C30.6566 21.0656 30.9618 20.9392 31.1868 20.7142C31.4118 20.4892 31.5382 20.1841 31.5383 19.8659C31.5383 19.5477 31.4119 19.2426 31.187 19.0175C30.962 18.7925 30.6569 18.6661 30.3387 18.666Z" fill="#AAB0B7"/>
</svg>
