<svg width="50" height="50" viewBox="0 0 50 50" fill="none" xmlns="http://www.w3.org/2000/svg">
<rect y="0.000244141" width="50" height="50" rx="10" fill="#F5F6FA"/>
<path d="M18.0038 20.0004H17.9756C17.669 20.0189 17.3619 19.974 17.0734 19.8684C16.7849 19.7629 16.5213 19.599 16.299 19.3871C16.0767 19.1751 15.9004 18.9195 15.7813 18.6364C15.6622 18.3533 15.6027 18.0486 15.6066 17.7414C15.6105 17.4343 15.6777 17.1312 15.804 16.8512C15.9302 16.5712 16.1129 16.3202 16.3405 16.1139C16.5681 15.9077 16.8358 15.7505 17.1269 15.6524C17.418 15.5542 17.7262 15.5171 18.0322 15.5433C18.3398 15.5211 18.6486 15.5627 18.9393 15.6655C19.2301 15.7684 19.4963 15.9303 19.7215 16.141C19.9466 16.3518 20.1257 16.6068 20.2475 16.8901C20.3692 17.1734 20.4311 17.4789 20.4291 17.7872C20.4272 18.0956 20.3614 18.4002 20.236 18.682C20.1106 18.9637 19.9283 19.2164 19.7005 19.4243C19.4727 19.6322 19.2044 19.7907 18.9124 19.8898C18.6204 19.9889 18.311 20.0266 18.0038 20.0004Z" fill="#AAB0B7"/>
<path d="M20.0186 23H16.0186V35H20.0186V23Z" fill="#AAB0B7"/>
<path d="M30.5176 23C29.8435 23.0018 29.1786 23.156 28.5725 23.451C27.9665 23.746 27.4349 24.1741 27.0176 24.7034V23H23.0176V35H27.0176V29.5C27.0176 28.9696 27.2283 28.4609 27.6034 28.0858C27.9784 27.7107 28.4871 27.5 29.0176 27.5C29.548 27.5 30.0567 27.7107 30.4318 28.0858C30.8069 28.4609 31.0176 28.9696 31.0176 29.5V35H35.0176V27.5C35.0176 26.9091 34.9012 26.3239 34.675 25.7779C34.4489 25.232 34.1174 24.7359 33.6996 24.318C33.2817 23.9002 32.7856 23.5687 32.2397 23.3425C31.6937 23.1164 31.1085 23 30.5176 23Z" fill="#AAB0B7"/>
</svg>
