<svg width="50" height="50" viewBox="0 0 50 50" fill="none" xmlns="http://www.w3.org/2000/svg">
<rect y="0.000244141" width="50" height="50" rx="10" fill="#F5F6FA"/>
<path d="M14.3021 25.6456C16.3481 24.557 18.6321 23.6483 20.7661 22.7351C24.4374 21.2393 28.1233 19.7694 31.8464 18.4009C32.5708 18.1677 33.8724 17.9398 34 18.9767C33.9301 20.4444 33.6426 21.9036 33.4454 23.3628C32.945 26.5717 32.3665 29.7696 31.8024 32.968C31.608 34.0334 30.2264 34.5848 29.3424 33.903C27.2178 32.5169 25.077 31.1441 22.9796 29.7258C22.2925 29.0515 22.9296 28.083 23.5432 27.6015C25.2931 25.9357 27.1488 24.5205 28.8072 22.7687C29.2545 21.7252 27.9327 22.6046 27.4968 22.8741C25.1012 24.4687 22.7643 26.1606 20.2387 27.5621C18.9486 28.248 17.445 27.6618 16.1555 27.279C14.9993 26.8166 13.305 26.3508 14.302 25.6457L14.3021 25.6456Z" fill="#AAB0B7"/>
</svg>
