<svg width="50" height="50" viewBox="0 0 50 50" fill="none" xmlns="http://www.w3.org/2000/svg">
<rect y="0.000244141" width="50" height="50" rx="10" fill="#F5F6FA"/>
<mask id="mask0_395_161" style="mask-type:alpha" maskUnits="userSpaceOnUse" x="11" y="11" width="28" height="28">
<rect x="11" y="11" width="28" height="28" fill="white"/>
</mask>
<g mask="url(#mask0_395_161)">
</g>
<path d="M33.4752 21.0083C33.4855 21.1934 33.4855 21.3784 33.4855 21.5533C33.4828 22.6919 33.3166 23.8243 32.9918 24.9157C32.3075 27.4308 30.8049 29.6463 28.7212 31.2123C26.6375 32.7783 24.0916 33.6056 21.4854 33.5636C19.1912 33.5661 16.9451 32.9055 15.0176 31.6612C15.3519 31.7026 15.6884 31.7232 16.0253 31.7229C17.9237 31.7247 19.7674 31.0872 21.2593 29.9131C20.3806 29.8966 19.5289 29.6064 18.823 29.083C18.117 28.5595 17.592 27.8289 17.321 26.9929C17.5826 27.0377 17.8473 27.0617 18.1128 27.0649C18.4917 27.0663 18.869 27.0143 19.2335 26.9106C18.3311 26.7319 17.5123 26.2618 16.903 25.5726C16.2937 24.8834 15.9275 24.0132 15.8608 23.0957C15.8437 22.9903 15.8368 22.8836 15.8402 22.7769V22.7255C16.4262 23.0517 17.0823 23.2316 17.7528 23.2499C17.1757 22.8653 16.7028 22.3438 16.3763 21.732C16.0498 21.1201 15.8797 20.437 15.8814 19.7435C15.8806 18.9968 16.0756 18.2629 16.4469 17.615C17.5059 18.9198 18.8279 19.987 20.3267 20.7471C21.8255 21.5071 23.4676 21.943 25.1461 22.0263C24.9337 21.1215 25.0261 20.1718 25.4088 19.3249C25.7916 18.478 26.4434 17.7812 27.2628 17.3427C28.0823 16.9042 29.0237 16.7487 29.9406 16.9002C30.8576 17.0517 31.6989 17.5018 32.3338 18.1805C33.2806 17.9937 34.1883 17.6459 35.0176 17.1522C35.0533 17.8681 34.9339 18.5833 34.6677 19.2488C34.4015 19.9143 33.9947 20.5145 33.4752 21.0083Z" fill="#AAB0B7"/>
</svg>
